<svg width="96" height="96" fill="none" xmlns="http://www.w3.org/2000/svg"><path d="M1.672 35.168A48 48 0 0 0 0 45.24L50.76 96a48 48 0 0 0 10.072-1.672l-59.16-59.16Z" fill="url(#a)"/><path d="M47.96 0C28.342 0 11.48 11.768 4.014 28.616l63.368 63.368C84.24 84.52 96 67.664 96 48.04 96 21.512 74.487 0 47.96 0Z" fill="url(#b)"/><path d="M.352 54.48C3.216 75.865 20.136 92.778 41.52 95.65L.352 54.48Z" fill="url(#c)"/><defs><linearGradient id="a" x1="-11.406" y1="32" x2="67.169" y2="110.575" gradientUnits="userSpaceOnUse"><stop offset=".531" stop-color="#CCA300"/><stop offset=".781" stop-color="#CCA300"/><stop offset="1" stop-color="#A38300"/></linearGradient><linearGradient id="b" x1="-13.232" y1="-4.791" x2="105.581" y2="114.023" gradientUnits="userSpaceOnUse"><stop offset=".531" stop-color="#CCA300"/><stop offset=".781" stop-color="#CCA300"/><stop offset="1" stop-color="#A38300"/></linearGradient><linearGradient id="c" x1="-7.368" y1="52.336" x2="45.808" y2="105.512" gradientUnits="userSpaceOnUse"><stop offset=".531" stop-color="#CCA300"/><stop offset=".781" stop-color="#CCA300"/><stop offset="1" stop-color="#A38300"/></linearGradient></defs></svg>